<mxfile host="app.diagrams.net" modified="2023-11-15T05:21:26.872Z" agent="Mozilla/5.0 (X11; Ubuntu; Linux x86_64; rv:109.0) Gecko/20100101 Firefox/113.0" version="22.1.1" etag="MD5hqc6jEzNJFDFBEydk" type="github">
  <diagram name="Page-1" id="vKxVA-76KxBGkFHAYw58">
    <mxGraphModel>
      <root>
        <mxCell id="0" />
        <mxCell id="1" parent="0" />
      </root>
    </mxGraphModel>
  </diagram>
</mxfile>
